<?xml version="1.0" encoding="UTF-8"?>
<svg width="327px" height="327px" viewBox="0 0 327 327" version="1.1" xmlns="http://www.w3.org/2000/svg" xmlns:xlink="http://www.w3.org/1999/xlink">
    <!-- Generator: Sketch 45 (43475) - http://www.bohemiancoding.com/sketch -->
    <title>brain.svg</title>
    <desc>Created with Sketch.</desc>
    <defs></defs>
    <g id="Page-1" stroke="none" stroke-width="1" fill="none" fill-rule="evenodd">
        <g id="brain.svg" transform="translate(-1.000000, 0.000000)" fill-rule="nonzero" fill="#FFFFFF">
            <g id="Group" transform="translate(0.394028, 0.000000)">
                <path d="M280.735016,163.607347 C280.735016,153.009029 274.581154,143.436355 265.00848,139.33378 C268.769173,134.205562 270.820461,128.0517 270.820461,121.555957 C270.820461,104.461896 256.80333,90.4447654 239.709269,90.4447654 C237.999863,90.4447654 235.948576,90.7866467 234.23917,91.1285279 C234.23917,90.1028842 234.581051,89.4191218 234.581051,88.3934781 C234.581051,76.7695165 225.008377,67.5387234 213.726296,67.5387234 C210.649365,67.5387234 207.572434,68.2224859 204.837384,69.5900108 C204.837384,69.2481296 204.837384,68.5643671 204.837384,68.2224859 C204.837384,58.3079304 196.974116,50.4446623 187.059561,50.4446623 C177.145005,50.4446623 169.281737,58.3079304 169.281737,68.2224859 L169.281737,259.675971 C169.281737,269.590527 177.145005,277.453795 187.059561,277.453795 C195.26471,277.453795 202.444216,271.641814 204.153622,263.778546 C208.256197,266.513596 213.042534,268.223002 218.170752,268.223002 C219.196396,268.223002 220.563921,268.223002 221.589564,267.881121 C227.743426,266.855477 233.555407,263.778546 237.316101,258.650327 C240.734913,253.86399 242.444319,248.393891 242.102438,242.58191 C256.119568,237.11181 266.034123,223.436561 266.034123,207.710025 C266.034123,201.214282 264.324717,195.06042 261.589668,189.59032 C272.529867,186.171508 280.735016,175.915071 280.735016,163.607347 Z M258.512737,184.803983 C254.410162,179.333884 248.940062,175.231309 242.444319,172.496259 C241.076794,171.812497 239.709269,172.496259 239.025507,173.863784 C238.341744,175.231309 239.025507,176.598834 240.393032,177.282596 C252.700756,182.410815 260.905905,194.034776 260.905905,207.368144 C260.905905,225.487849 246.205012,239.84686 228.427189,239.84686 C227.059664,239.84686 226.03402,240.872504 226.03402,242.240029 C226.03402,243.607554 227.059664,244.633197 228.427189,244.633197 C231.50412,244.633197 234.23917,244.291316 236.974219,243.607554 C236.974219,247.710128 235.948576,251.812703 233.213526,254.889634 C230.136595,258.992209 225.692139,261.385377 220.905802,262.06914 C210.649365,263.436665 201.076691,256.257159 199.709166,246.000722 C199.367285,244.633197 198.341641,243.607554 196.974116,243.949435 C195.606591,244.291316 194.580948,245.31696 194.922829,246.684485 C195.606591,251.128941 197.315997,255.231515 200.051047,258.308446 C200.051047,258.308446 200.051047,258.308446 200.051047,258.650327 C200.051047,265.487952 194.239066,271.299933 187.401442,271.299933 C180.563818,271.299933 174.751837,265.487952 174.751837,258.650327 L174.751837,239.504979 C177.486887,238.137454 182.956986,235.744286 186.71768,237.11181 C188.085204,237.453692 189.452729,236.769929 189.794611,235.402404 C190.136492,234.034879 189.452729,232.667354 188.085204,232.325473 C183.298867,230.957948 178.170649,232.667354 174.751837,234.034879 L174.751837,212.838244 C175.093718,210.786956 179.880055,190.615964 198.683522,190.615964 C200.051047,190.615964 201.076691,189.59032 201.076691,188.222795 C201.076691,186.855271 200.051047,185.487746 198.683522,185.829627 C186.375798,185.829627 179.196293,193.009133 175.093718,200.188638 L175.093718,142.06883 C178.51253,141.385068 187.401442,141.726949 198.341641,157.111604 C198.683522,157.795366 199.709166,158.137248 200.392929,158.137248 C200.73481,158.137248 201.418572,158.137248 201.760453,157.795366 C202.786097,157.111604 203.127978,155.402198 202.444216,154.376554 C190.820254,138.308137 180.563818,136.598731 175.093718,137.282493 L175.093718,96.5986275 C178.170649,96.2567462 184.324511,95.914865 188.427086,103.094371 C188.768967,103.778133 189.794611,104.461896 190.478373,104.461896 C190.820254,104.461896 191.504017,104.461896 191.845898,104.120014 C193.213423,103.436252 193.555304,101.726846 192.871542,100.701202 C188.085204,92.1541715 180.221936,90.7866467 175.093718,91.4704091 L175.093718,67.8806047 C175.093718,61.0429802 180.905699,55.2309994 187.743323,55.2309994 C194.580948,55.2309994 200.392929,61.0429802 200.392929,67.8806047 C200.392929,69.931892 199.709166,72.3250606 198.683522,74.0344667 C195.26471,77.7951602 193.213423,82.5814973 193.213423,88.0515969 C193.213423,89.4191218 194.239066,90.4447654 195.606591,90.4447654 C196.974116,90.4447654 197.99976,89.4191218 197.99976,88.0515969 C197.99976,84.9746658 199.025404,81.8977348 200.73481,79.5045663 C200.73481,79.5045663 201.076691,79.162685 201.076691,79.162685 C201.418572,78.4789226 201.760453,78.1370414 202.444216,77.4532789 C205.521147,74.3763479 209.623722,72.3250606 214.068177,72.3250606 C222.957089,72.3250606 230.136595,79.5045663 230.136595,88.3934781 C230.136595,90.1028842 229.794714,91.8122903 229.452833,93.5216964 C229.110951,94.2054589 229.110951,94.8892213 229.110951,95.5729838 C229.110951,95.914865 229.452833,96.2567462 229.794714,96.5986275 C229.794714,96.5986275 229.794714,96.5986275 229.794714,96.5986275 C230.136595,96.5986275 230.136595,96.9405087 230.478476,96.9405087 C230.478476,96.9405087 230.478476,96.9405087 230.478476,96.9405087 C230.478476,96.9405087 230.820357,96.9405087 230.820357,96.9405087 C230.820357,96.9405087 230.820357,96.9405087 230.820357,96.9405087 C230.820357,96.9405087 230.820357,96.9405087 231.162239,96.9405087 C231.50412,96.9405087 231.846001,96.9405087 232.187882,96.5986275 C234.922932,95.914865 237.316101,95.2311026 240.05115,95.2311026 C254.410162,95.2311026 266.034123,106.855064 266.034123,121.214076 C266.034123,131.128631 260.222143,140.359424 250.99135,144.80388 C249.623825,145.487642 249.281943,146.855167 249.623825,148.222692 C249.965706,149.248336 250.99135,149.590217 252.016993,149.590217 C252.358875,149.590217 252.700756,149.590217 253.042637,149.248336 C256.461449,147.880811 259.196499,145.487642 261.589668,143.094474 C270.136698,146.171405 275.948679,154.034673 275.948679,163.265466 C275.606798,173.863784 268.427292,182.752696 258.512737,184.803983 Z" id="Shape"></path>
                <path d="M221.931446,136.256849 C222.273327,137.282493 223.29897,137.966256 224.324614,137.966256 C224.666495,137.966256 225.008377,137.966256 225.350258,137.966256 C226.717783,137.624374 227.401545,135.914968 226.717783,134.889325 C223.29897,126.000413 218.512633,120.188432 212.01689,117.795263 C202.786097,114.718332 194.239066,119.504669 193.897185,119.846551 C192.871542,120.530313 192.187779,122.239719 192.871542,123.265363 C193.555304,124.291007 195.26471,124.974769 196.290354,124.291007 C196.290354,124.291007 203.127978,120.188432 210.307484,122.5816 C215.093821,123.949125 218.854515,128.735462 221.931446,136.256849 Z" id="Shape"></path>
                <path d="M230.820357,191.299726 C229.452833,191.299726 228.085308,192.32537 228.085308,193.692895 C228.085308,193.692895 226.375902,207.710025 211.333128,210.103194 C209.965603,210.445075 208.939959,211.470719 209.28184,212.838244 C209.623722,214.205768 210.649365,214.889531 211.675009,214.889531 C211.675009,214.889531 212.01689,214.889531 212.01689,214.889531 C231.162239,211.8126 233.213526,194.034776 233.213526,194.034776 C233.213526,192.667251 232.187882,191.641608 230.820357,191.299726 Z" id="Shape"></path>
                <path d="M90.6490557,258.308446 C94.4097492,263.436665 99.8798487,266.855477 106.375592,267.539239 C107.401236,267.539239 108.768761,267.881121 109.794404,267.881121 C114.922623,267.881121 119.70896,266.171714 123.811534,263.436665 C125.520941,271.299933 132.700446,277.111914 140.905596,277.111914 C150.820151,277.111914 158.683419,269.248645 158.683419,259.33409 L158.683419,67.8806047 C158.683419,57.9660492 150.820151,50.102781 140.905596,50.102781 C130.99104,50.102781 123.127772,57.9660492 123.127772,67.8806047 C123.127772,68.2224859 123.127772,68.9062483 123.127772,69.2481296 C120.392722,67.8806047 117.315791,67.1968422 114.23886,67.1968422 C102.614899,67.1968422 93.3841055,76.7695165 93.3841055,88.0515969 C93.3841055,89.0772405 93.3841055,89.761003 93.7259867,90.7866467 C92.0165806,90.4447654 89.9652932,90.1028842 88.2558871,90.1028842 C71.1618259,90.1028842 57.1446958,104.120014 57.1446958,121.214076 C57.1446958,127.709819 59.1959831,133.863681 62.9566766,138.991899 C53.3840023,143.094474 47.2301403,152.667148 47.2301403,163.265466 C47.2301403,175.231309 55.4352896,185.829627 66.71737,188.906558 C63.640439,194.376657 62.2729141,200.530519 62.2729141,207.026263 C62.2729141,223.09468 72.1874696,236.769929 86.2045998,241.898148 C85.5208373,248.05201 87.2302435,253.86399 90.6490557,258.308446 Z M67.0592513,207.368144 C67.0592513,194.034776 74.9225194,182.068933 87.5721247,177.282596 C88.9396496,176.598834 89.623412,175.231309 88.9396496,173.863784 C88.2558871,172.496259 86.8883622,171.812497 85.5208373,172.496259 C79.0250941,175.231309 73.5549945,179.333884 69.4524198,184.803983 C59.5378643,182.752696 52.0164774,173.863784 52.0164774,163.607347 C52.0164774,154.376554 57.8284582,146.513286 66.3754888,143.436355 C68.7686574,145.829524 71.8455884,148.222692 74.9225194,149.590217 C75.2644006,149.590217 75.6062818,149.932098 75.9481631,149.932098 C76.9738067,149.932098 77.6575692,149.248336 78.3413316,148.564573 C79.0250941,147.197049 78.3413316,145.829524 76.9738067,145.145761 C67.7430137,141.043187 61.9310329,131.812393 61.9310329,121.555957 C61.9310329,107.196945 73.5549945,95.5729838 87.9140059,95.5729838 C90.6490557,95.5729838 93.3841055,95.914865 95.777274,96.9405087 C96.1191553,96.9405087 96.4610365,97.2823899 96.8029177,97.2823899 C96.8029177,97.2823899 96.8029177,97.2823899 97.1447989,97.2823899 C97.1447989,97.2823899 97.1447989,97.2823899 97.1447989,97.2823899 C97.1447989,97.2823899 97.4866802,97.2823899 97.4866802,97.2823899 C97.4866802,97.2823899 97.4866802,97.2823899 97.4866802,97.2823899 C97.8285614,97.2823899 97.8285614,96.9405087 98.1704426,96.9405087 C98.1704426,96.9405087 98.1704426,96.9405087 98.1704426,96.9405087 C98.5123238,96.5986275 98.8542051,96.2567462 98.8542051,95.914865 C99.1960863,95.2311026 98.8542051,94.5473401 98.5123238,93.8635777 C97.8285614,92.1541715 97.8285614,90.4447654 97.8285614,88.7353593 C97.8285614,79.8464475 105.008067,72.6669418 113.896979,72.6669418 C118.683316,72.6669418 122.785891,74.7182291 125.520941,77.7951602 C125.862822,78.4789226 126.204703,79.162685 126.888465,79.5045663 C126.888465,79.5045663 127.230347,79.8464475 127.230347,79.8464475 C128.939753,82.2396161 129.965396,85.3165471 129.965396,88.3934781 C129.965396,89.761003 130.99104,90.7866467 132.358565,90.7866467 C133.72609,90.7866467 134.751734,89.761003 134.751734,88.3934781 C134.751734,82.9233785 132.700446,78.1370414 129.281634,74.3763479 C128.25599,72.3250606 127.572228,70.2737732 127.572228,68.2224859 C127.572228,61.3848614 133.384209,55.5728806 140.221833,55.5728806 C147.059458,55.5728806 152.871438,61.3848614 152.871438,68.2224859 L152.871438,91.8122903 C147.74322,91.1285279 139.879952,92.4960528 135.093615,101.043083 C134.409852,102.410608 134.751734,103.778133 136.119258,104.461896 C136.46114,104.803777 136.803021,104.803777 137.486783,104.803777 C138.512427,104.803777 139.196189,104.461896 139.538071,103.436252 C143.640645,96.2567462 150.136389,96.2567462 152.871438,96.9405087 L152.871438,136.940612 C147.74322,136.256849 137.144902,137.966256 125.520941,154.034673 C124.837178,155.060317 124.837178,156.769723 126.204703,157.453485 C126.546584,157.795366 127.230347,157.795366 127.572228,157.795366 C128.25599,157.795366 129.281634,157.453485 129.623515,156.769723 C140.563714,141.385068 149.452626,141.385068 152.871438,141.726949 L152.871438,199.846757 C148.768864,193.009133 141.589358,185.829627 129.281634,185.829627 C129.281634,185.829627 129.281634,185.829627 129.281634,185.829627 C127.914109,185.829627 126.888465,186.855271 126.888465,188.222795 C126.888465,189.59032 127.914109,190.615964 129.281634,190.615964 C148.085101,190.957845 152.529557,210.786956 153.21332,212.838244 L153.21332,234.034879 C149.794507,232.667354 144.666289,230.957948 139.879952,232.325473 C138.512427,232.667354 137.828665,234.034879 138.170546,235.402404 C138.512427,236.769929 139.879952,237.453692 141.247477,237.11181 C145.00817,236.086167 150.47827,238.137454 153.21332,239.504979 L153.21332,259.675971 C153.21332,266.513596 147.401339,272.325576 140.563714,272.325576 C133.72609,272.325576 127.914109,266.513596 127.914109,259.675971 C127.914109,259.675971 127.914109,259.675971 127.914109,259.33409 C130.649159,255.915278 132.358565,252.154584 133.042327,247.710128 C133.384209,246.342603 132.358565,244.975079 130.99104,244.975079 C129.623515,244.633197 128.25599,245.658841 128.25599,247.026366 C127.572228,252.154584 124.837178,256.257159 121.076485,259.33409 C116.97391,262.411021 112.187573,263.778546 107.059354,262.752902 C101.931136,262.06914 97.8285614,259.33409 94.7516304,255.573396 C92.3584618,252.154584 90.9909369,248.393891 90.9909369,244.291316 C93.7259867,244.975079 96.4610365,245.31696 99.5379675,245.31696 C100.905492,245.31696 101.931136,244.291316 101.931136,242.923791 C101.931136,241.556266 100.905492,240.530623 99.5379675,240.530623 C81.4182627,239.84686 67.0592513,225.487849 67.0592513,207.368144 Z" id="Shape"></path>
                <path d="M102.614899,137.624374 C102.95678,137.624374 103.298661,137.624374 103.640542,137.624374 C104.666186,137.624374 105.69183,136.940612 106.033711,135.914968 C108.768761,128.393581 112.871335,123.607244 117.657672,121.897838 C124.495297,119.504669 131.332921,123.265363 131.674803,123.607244 C132.700446,124.291007 134.409852,123.949125 135.093615,122.5816 C135.777377,121.555957 135.435496,119.846551 134.067971,119.162788 C133.72609,118.820907 125.179059,114.03457 115.948266,117.111501 C109.452523,119.504669 104.324305,124.974769 101.247374,134.205562 C100.905492,135.573087 101.589255,137.282493 102.614899,137.624374 Z" id="Shape"></path>
                <path d="M298.854721,72.6669418 C298.170958,71.6412981 296.461552,71.2994169 295.435909,71.9831793 C294.410265,72.6669418 294.068384,74.3763479 294.752146,75.4019916 C300.564127,83.9490222 305.350464,92.837934 309.453039,102.068727 C313.555614,111.641401 316.632545,121.555957 318.683832,131.812393 C320.735119,142.06883 321.760763,153.009029 321.760763,163.607347 C321.760763,174.205665 320.735119,185.145864 318.683832,195.402301 C316.632545,205.658738 313.555614,215.573293 309.453039,225.145968 C305.350464,234.376761 300.564127,243.607554 294.752146,251.812703 C294.068384,252.838347 294.410265,254.547753 295.435909,255.231515 C295.77779,255.573396 296.461552,255.573396 296.803434,255.573396 C297.487196,255.573396 298.51284,255.231515 298.854721,254.547753 C304.666702,246.000722 309.79492,236.428048 313.897495,226.855374 C318.000069,216.940818 321.418882,206.684381 323.470169,196.427945 C325.521456,185.829627 326.888981,174.547546 326.888981,163.607347 C326.888981,152.667148 325.863338,141.385068 323.470169,130.78675 C321.418882,120.188432 318.000069,109.931995 313.897495,100.359321 C309.79492,90.7866467 304.666702,81.2139724 298.854721,72.6669418 Z" id="Shape"></path>
                <path d="M75.6062818,32.6668386 C84.1533124,26.8548578 93.0422243,22.0685207 102.273017,17.965946 C111.845692,13.8633713 121.760247,10.7864403 132.016684,8.73515296 C152.871438,4.63257828 174.751837,4.63257828 195.606591,8.73515296 C205.863028,10.7864403 215.777584,13.8633713 225.350258,17.965946 C234.581051,22.0685207 243.811844,26.8548578 252.016993,32.6668386 C252.358875,33.0087198 253.042637,33.0087198 253.384518,33.0087198 C254.068281,33.0087198 255.093924,32.6668386 255.435806,31.9830762 C256.119568,30.9574325 255.777687,29.2480264 254.752043,28.5642639 C246.205012,22.7522831 236.632338,17.6240648 227.059664,13.5214901 C217.145108,9.41891541 206.888672,6.00010317 196.632235,3.94881583 C175.093718,-0.495640077 152.529557,-0.495640077 130.99104,3.94881583 C120.392722,6.00010317 110.136285,9.41891541 100.563611,13.5214901 C90.9909369,17.6240648 81.7601439,22.7522831 72.8712321,28.5642639 C71.8455884,29.2480264 71.5037072,30.9574325 72.1874696,31.9830762 C72.8712321,33.3506011 74.5806382,33.6924823 75.6062818,32.6668386 Z" id="Shape"></path>
                <path d="M28.7685542,254.889634 C29.1104354,255.573396 30.1360791,255.915278 30.8198415,255.915278 C31.1617228,255.915278 31.8454852,255.915278 32.1873664,255.573396 C33.2130101,254.889634 33.5548913,253.180228 32.8711289,252.154584 C27.0591481,243.607554 22.272811,234.718642 18.1702363,225.487849 C14.0676616,215.915175 10.9907306,206.000619 8.93944323,195.744182 C6.88815588,185.487746 5.86251221,174.547546 5.86251221,163.949229 C5.86251221,153.350911 6.88815588,142.410711 8.93944323,132.154275 C10.9907306,121.897838 14.0676616,111.983283 18.1702363,102.410608 C22.272811,93.1798152 27.0591481,83.9490222 32.8711289,75.7438728 C33.5548913,74.7182291 33.2130101,73.008823 32.1873664,72.3250606 C31.1617228,71.6412981 29.4523166,71.9831793 28.7685542,73.008823 C22.9565734,81.8977348 17.828355,91.1285279 13.7257804,100.701202 C9.62320567,110.615758 6.20439344,120.872194 4.15310609,131.128631 C2.10181875,141.726949 0.734293857,153.009029 0.734293857,163.949229 C0.734293857,174.889428 1.75993753,186.171508 4.15310609,196.769826 C6.20439344,207.368144 9.62320567,217.624581 13.7257804,227.197255 C17.828355,236.769929 22.9565734,246.000722 28.7685542,254.889634 Z" id="Shape"></path>
                <path d="M252.016993,294.547856 C243.469963,300.359837 234.581051,305.146174 225.350258,309.248749 C215.777584,313.351323 205.863028,316.428254 195.606591,318.479542 C174.751837,322.582116 152.871438,322.582116 132.016684,318.479542 C121.760247,316.428254 111.845692,313.351323 102.273017,309.248749 C93.0422243,305.146174 83.8114312,300.359837 75.6062818,294.547856 C74.5806382,293.864094 72.8712321,294.205975 72.1874696,295.231618 C71.5037072,296.257262 71.8455884,297.966668 72.8712321,298.650431 C81.4182627,304.462411 90.9909369,309.59063 100.563611,313.693205 C110.478167,317.795779 120.734603,321.214591 130.99104,323.265879 C141.589358,325.317166 152.871438,326.684691 163.811638,326.684691 C174.751837,326.684691 186.033917,325.659047 196.632235,323.265879 C207.230553,321.214591 217.48699,317.795779 227.059664,313.693205 C236.632338,309.59063 245.863131,304.462411 254.752043,298.650431 C255.777687,297.966668 256.119568,296.257262 255.435806,295.231618 C254.752043,294.205975 253.384518,293.864094 252.016993,294.547856 Z" id="Shape"></path>
            </g>
        </g>
    </g>
</svg>