<?xml version="1.0" encoding="UTF-8"?>
<svg width="66px" height="66px" viewBox="0 0 66 66" version="1.1" xmlns="http://www.w3.org/2000/svg" xmlns:xlink="http://www.w3.org/1999/xlink">
    <!-- Generator: Sketch 45 (43475) - http://www.bohemiancoding.com/sketch -->
    <title>north</title>
    <desc>Created with Sketch.</desc>
    <defs></defs>
    <g id="Page-1" stroke="none" stroke-width="1" fill="none" fill-rule="evenodd">
        <g id="north" transform="translate(0.098807, 0.098807)" fill-rule="nonzero" fill="#FF0000">
            <path d="M56.1654704,56.1654704 C43.3371384,68.9938023 22.4644648,68.9938023 9.63613282,56.1654704 C-3.19219911,43.3371384 -3.19219911,22.4644648 9.63613282,9.63613282 C22.4644648,-3.19219911 43.3371384,-3.19219911 56.1654704,9.63613282 C68.9938023,22.4644648 68.9938023,43.3379218 56.1654704,56.1654704 Z M11.8522632,11.8522632 C0.245975588,23.4585508 0.245975588,42.3438358 11.8522632,53.9501234 C23.4585508,65.556411 42.3438358,65.556411 53.9501234,53.9501234 C65.556411,42.3438358 65.556411,23.4585508 53.9501234,11.8522632 C42.3438358,0.245975588 23.4585508,0.245975588 11.8522632,11.8522632 Z" id="Shape"></path>
            <path d="M44.9492969,48.5496275 C44.8654772,48.6334472 44.7691237,48.7094333 44.6649366,48.7744523 C44.0476475,49.1559495 43.2478352,49.0635128 42.7339499,48.5496275 L32.7625383,38.5789992 L22.79191,48.5496275 C22.2780247,49.0635128 21.4782123,49.1559495 20.8609233,48.7744523 C20.2428508,48.3921718 19.9678909,47.6354443 20.1981992,46.946086 L31.276501,13.7111806 C31.4903588,13.0696073 32.0896305,12.6395418 32.7633216,12.6395418 C33.4370127,12.6395418 34.0370678,13.0711741 34.2501422,13.7111806 L45.328444,46.946086 C45.5180175,47.5187234 45.3613452,48.1367959 44.9492969,48.5496275 Z M25.2688998,41.6411603 L31.6548647,35.2551953 C32.2666703,34.6433898 33.2591896,34.6433898 33.8702118,35.2551953 L40.2561767,41.6411603 L32.7625383,19.1610283 L25.2688998,41.6411603 Z" id="Shape"></path>
        </g>
    </g>
</svg>