<?xml version="1.0" encoding="UTF-8"?>
<svg width="72px" height="72px" viewBox="0 0 72 72" version="1.1" xmlns="http://www.w3.org/2000/svg" xmlns:xlink="http://www.w3.org/1999/xlink">
    <!-- Generator: Sketch 45 (43475) - http://www.bohemiancoding.com/sketch -->
    <title>restart</title>
    <desc>Created with Sketch.</desc>
    <defs></defs>
    <g id="Page-1" stroke="none" stroke-width="1" fill="none" fill-rule="evenodd">
        <g id="restart" transform="translate(-0.261342, 0.550113)" fill-rule="nonzero" fill="#FFFFFF">
            <path d="M63.9414095,13.3804295 C57.4789133,5.22967492 47.4750006,0 36.2618237,0 C16.7486973,0 0.926182375,15.822515 0.926182375,35.3356414 C0.926182375,54.8487678 16.7486973,70.6712827 36.2618237,70.6712827 C49.1004401,70.6712827 60.3371741,63.8240207 66.5169851,53.5845371 C69.744307,48.2606338 71.5974651,42.0101514 71.5974651,35.3356414 C71.5974651,27.0435442 68.7392044,19.4110457 63.9414095,13.3804295 Z M57.9013705,38.5888761 C57.7537461,39.6685762 57.527598,40.7286455 57.2276376,41.7400301 C54.5170013,51.1746463 45.723138,57.6010216 36.0820046,57.6010216 C35.1098818,57.6010216 34.1291215,57.535847 33.1444349,57.4015716 C26.1833136,56.4522207 20.1786103,52.2928231 16.8335029,46.1766161 C16.4825022,45.5350779 16.7337779,44.7294253 17.3957322,44.4176864 L19.3886624,43.4793289 C19.9799454,43.2013551 20.6929402,43.4188656 21.0093905,43.9905178 C23.6462145,48.7537623 28.3434991,51.990507 33.782047,52.7325555 C42.2272652,53.8860679 50.3576037,48.5904331 52.706246,40.4192623 C52.9433874,39.6175359 53.1192804,38.794608 53.2339249,37.9512641 C53.3493547,37.1063496 53.4003951,36.2661466 53.3862608,35.4510711 C53.3132338,26.9296849 46.8923551,19.6497575 38.4526335,18.4993861 C31.314834,17.5233372 24.4023973,21.0898812 20.9991824,27.2814708 L22.9363608,28.1216739 C23.4349859,28.317983 23.4946639,28.9995683 23.0376563,29.2798977 L16.4534484,33.6081211 C16.0843873,33.8342692 15.6022521,33.6434568 15.4876076,33.2264962 L13.5747715,25.2139432 C13.4334289,24.6980428 13.9414769,24.2410352 14.4393169,24.4373443 L16.6536837,25.3976885 C20.9065245,17.2752024 29.8535089,12.5724212 39.0886751,13.8319405 C49.8314953,15.2971918 58.0034513,24.5661231 58.0968944,35.3921784 C58.1141696,36.4255496 58.0482097,37.5076055 57.9013705,38.5888761 Z" id="Shape"></path>
        </g>
    </g>
</svg>